# xmcd CD database file
#
# Track frame offsets:
#	150
#	29197
#	52808
#	72880
#	96706
#	114879
#	136535
#	155035
#	173921
#	194854
#	210060
#	228241
#
# Disc length: 3271 seconds
#
# Revision: 0
# Processed by: cddbd v1.5.2PL0 Copyright (c) Steve Scherf et al.
# Submitted via: CDex 1.51
#
DISCID=a40cc50c
DTITLE=Camilo Azuquita - La Salsa c'est pas compliqué
DYEAR=1900
DGENRE=Salsa
TTITLE0=La salsa c'est pas compliqué
TTITLE1=Un dos, tres... Maria
TTITLE2=Lo Bailao
TTITLE3=Sueno con Cuba
TTITLE4=Ya hablo Francés
TTITLE5=Panama y sur canal
TTITLE6=Antes que alguien
TTITLE7=Pollera y Montuno
TTITLE8=De mis adentros
TTITLE9=Azuquita para bailar
TTITLE10=Un dos tres... Maria (version radio)
TTITLE11=La salsa c'est pas compliqué (version radio)
EXTD=
EXTT0=
EXTT1=
EXTT2=
EXTT3=
EXTT4=
EXTT5=
EXTT6=
EXTT7=
EXTT8=
EXTT9=
EXTT10=
EXTT11=
PLAYORDER=
